<svg xmlns="http://www.w3.org/2000/svg" width="1160" height="876" viewBox="0 0 1160 876" font-family="system-ui,'Segoe UI',Inter,Helvetica,Arial,sans-serif">
  <line x1="110.0" y1="72.0" x2="110.0" y2="868.0" stroke="#00203F" stroke-width="1.4" stroke-linecap="round" stroke-dasharray="2 6" stroke-opacity="0.35"/>
  <rect x="29.0" y="28.0" width="162.0" height="44.0" rx="10" ry="10" fill="#00203F" stroke="none" stroke-width="1.5"/>
  <text x="110.0" y="56.0" text-anchor="middle" style="white-space:pre"><tspan font-family="system-ui,'Segoe UI',Inter,Helvetica,Arial,sans-serif" font-size="16" fill="#ffffff" font-weight="700">code</tspan></text>
  <line x1="380.0" y1="72.0" x2="380.0" y2="868.0" stroke="#00203F" stroke-width="1.4" stroke-linecap="round" stroke-dasharray="2 6" stroke-opacity="0.35"/>
  <rect x="299.0" y="28.0" width="162.0" height="44.0" rx="10" ry="10" fill="#00203F" stroke="none" stroke-width="1.5"/>
  <text x="380.0" y="56.0" text-anchor="middle" style="white-space:pre"><tspan font-family="system-ui,'Segoe UI',Inter,Helvetica,Arial,sans-serif" font-size="16" fill="#ffffff" font-weight="700">RbAmp</tspan></text>
  <line x1="660.0" y1="72.0" x2="660.0" y2="868.0" stroke="#00203F" stroke-width="1.4" stroke-linecap="round" stroke-dasharray="2 6" stroke-opacity="0.35"/>
  <rect x="579.0" y="28.0" width="162.0" height="44.0" rx="10" ry="10" fill="#00203F" stroke="none" stroke-width="1.5"/>
  <text x="660.0" y="56.0" text-anchor="middle" style="white-space:pre"><tspan font-family="system-ui,'Segoe UI',Inter,Helvetica,Arial,sans-serif" font-size="16" fill="#ffffff" font-weight="700">Backend</tspan></text>
  <line x1="1010.0" y1="72.0" x2="1010.0" y2="868.0" stroke="#00203F" stroke-width="1.4" stroke-linecap="round" stroke-dasharray="2 6" stroke-opacity="0.35"/>
  <rect x="929.0" y="28.0" width="162.0" height="44.0" rx="10" ry="10" fill="#00203F" stroke="none" stroke-width="1.5"/>
  <text x="1010.0" y="56.0" text-anchor="middle" style="white-space:pre"><tspan font-family="system-ui,'Segoe UI',Inter,Helvetica,Arial,sans-serif" font-size="16" fill="#ffffff" font-weight="700">rbAmp module</tspan></text>
  <line x1="110.0" y1="110.0" x2="371.0" y2="110.0" stroke="#00203F" stroke-width="2" stroke-linecap="round"/>
  <path d="M 371 105 L 371 115 L 380 110 Z" fill="#00203F"/>
  <text x="245.0" y="101.0" text-anchor="middle" style="white-space:pre"><tspan font-family="'SFMono-Regular',Menlo,Consolas,'Liberation Mono',monospace" font-size="14" fill="#00203F" font-weight="400">dev.begin()</tspan></text>
  <circle cx="110.0" cy="110.0" r="3.0" fill="#00203F" stroke="none" stroke-width="1"/>
  <line x1="380.0" y1="158.0" x2="651.0" y2="158.0" stroke="#00203F" stroke-width="2" stroke-linecap="round"/>
  <path d="M 651 153 L 651 163 L 660 158 Z" fill="#00203F"/>
  <text x="520.0" y="149.0" text-anchor="middle" style="white-space:pre"><tspan font-family="'SFMono-Regular',Menlo,Consolas,'Liberation Mono',monospace" font-size="14" fill="#00203F" font-weight="400">read_u8(REG_VERSION)</tspan></text>
  <circle cx="380.0" cy="158.0" r="3.0" fill="#00203F" stroke="none" stroke-width="1"/>
  <line x1="660.0" y1="206.0" x2="1001.0" y2="206.0" stroke="#00203F" stroke-width="2" stroke-linecap="round"/>
  <path d="M 1001 201 L 1001 211 L 1010 206 Z" fill="#00203F"/>
  <text x="835.0" y="197.0" text-anchor="middle" style="white-space:pre"><tspan font-family="'SFMono-Regular',Menlo,Consolas,'Liberation Mono',monospace" font-size="14" fill="#00203F" font-weight="400">[0x50, 0x03]</tspan></text>
  <circle cx="660.0" cy="206.0" r="3.0" fill="#00203F" stroke="none" stroke-width="1"/>
  <line x1="1010.0" y1="254.0" x2="669.0" y2="254.0" stroke="#00203F" stroke-width="2" stroke-linecap="round" stroke-dasharray="7 5"/>
  <path d="M 669 249 L 669 259 L 660 254 Z" fill="#00203F"/>
  <text x="835.0" y="245.0" text-anchor="middle" style="white-space:pre"><tspan font-family="'SFMono-Regular',Menlo,Consolas,'Liberation Mono',monospace" font-size="14" fill="#00203F" font-weight="400">ACK</tspan></text>
  <circle cx="1010.0" cy="254.0" r="3.0" fill="#00203F" stroke="none" stroke-width="1"/>
  <line x1="660.0" y1="302.0" x2="1001.0" y2="302.0" stroke="#00203F" stroke-width="2" stroke-linecap="round"/>
  <path d="M 1001 297 L 1001 307 L 1010 302 Z" fill="#00203F"/>
  <text x="835.0" y="293.0" text-anchor="middle" style="white-space:pre"><tspan font-family="'SFMono-Regular',Menlo,Consolas,'Liberation Mono',monospace" font-size="14" fill="#00203F" font-weight="400">[read 1 byte]</tspan></text>
  <circle cx="660.0" cy="302.0" r="3.0" fill="#00203F" stroke="none" stroke-width="1"/>
  <line x1="1010.0" y1="350.0" x2="669.0" y2="350.0" stroke="#00203F" stroke-width="2" stroke-linecap="round" stroke-dasharray="7 5"/>
  <path d="M 669 345 L 669 355 L 660 350 Z" fill="#00203F"/>
  <text x="835.0" y="341.0" text-anchor="middle" style="white-space:pre"><tspan font-family="'SFMono-Regular',Menlo,Consolas,'Liberation Mono',monospace" font-size="14" fill="#00203F" font-weight="400">[0x03]</tspan></text>
  <circle cx="1010.0" cy="350.0" r="3.0" fill="#00203F" stroke="none" stroke-width="1"/>
  <line x1="660.0" y1="398.0" x2="389.0" y2="398.0" stroke="#00203F" stroke-width="2" stroke-linecap="round" stroke-dasharray="7 5"/>
  <path d="M 389 393 L 389 403 L 380 398 Z" fill="#00203F"/>
  <text x="520.0" y="389.0" text-anchor="middle" style="white-space:pre"><tspan font-family="'SFMono-Regular',Menlo,Consolas,'Liberation Mono',monospace" font-size="14" fill="#00203F" font-weight="400">0x03</tspan></text>
  <circle cx="660.0" cy="398.0" r="3.0" fill="#00203F" stroke="none" stroke-width="1"/>
  <text x="674.0" y="403.0" style="white-space:pre"><tspan font-family="system-ui,'Segoe UI',Inter,Helvetica,Arial,sans-serif" font-size="13" fill="#8a9ab0" font-weight="400">(v1.2)</tspan></text>
  <line x1="380.0" y1="472.0" x2="651.0" y2="472.0" stroke="#00203F" stroke-width="2" stroke-linecap="round"/>
  <path d="M 651 467 L 651 477 L 660 472 Z" fill="#00203F"/>
  <text x="520.0" y="463.0" text-anchor="middle" style="white-space:pre"><tspan font-family="'SFMono-Regular',Menlo,Consolas,'Liberation Mono',monospace" font-size="14" fill="#00203F" font-weight="400">read_float_le(U_RMS)</tspan></text>
  <circle cx="380.0" cy="472.0" r="3.0" fill="#00203F" stroke="none" stroke-width="1"/>
  <text x="674.0" y="477.0" style="white-space:pre"><tspan font-family="system-ui,'Segoe UI',Inter,Helvetica,Arial,sans-serif" font-size="13" fill="#8a9ab0" font-weight="400">(4 single-byte reads)</tspan></text>
  <text x="394.0" y="525.0" style="white-space:pre"><tspan font-family="'SFMono-Regular',Menlo,Consolas,'Liberation Mono',monospace" font-size="14" fill="#8a9ab0" font-weight="400">→ 226.3 V</tspan></text>
  <circle cx="380.0" cy="520.0" r="3.0" fill="#00203F" stroke="none" stroke-width="1"/>
  <text x="394.0" y="573.0" style="white-space:pre"><tspan font-family="'SFMono-Regular',Menlo,Consolas,'Liberation Mono',monospace" font-size="14" fill="#8a9ab0" font-weight="400">→ has_voltage_hw = True</tspan></text>
  <circle cx="380.0" cy="568.0" r="3.0" fill="#00203F" stroke="none" stroke-width="1"/>
  <line x1="380.0" y1="642.0" x2="651.0" y2="642.0" stroke="#00203F" stroke-width="2" stroke-linecap="round"/>
  <path d="M 651 637 L 651 647 L 660 642 Z" fill="#00203F"/>
  <text x="520.0" y="633.0" text-anchor="middle" style="white-space:pre"><tspan font-family="'SFMono-Regular',Menlo,Consolas,'Liberation Mono',monospace" font-size="14" fill="#00203F" font-weight="400">write_cmd(LATCH)</tspan></text>
  <circle cx="380.0" cy="642.0" r="3.0" fill="#00203F" stroke="none" stroke-width="1"/>
  <line x1="660.0" y1="690.0" x2="1001.0" y2="690.0" stroke="#00203F" stroke-width="2" stroke-linecap="round"/>
  <path d="M 1001 685 L 1001 695 L 1010 690 Z" fill="#00203F"/>
  <text x="835.0" y="681.0" text-anchor="middle" style="white-space:pre"><tspan font-family="'SFMono-Regular',Menlo,Consolas,'Liberation Mono',monospace" font-size="14" fill="#00203F" font-weight="400">[0x50, 0x01, 0x27]</tspan></text>
  <circle cx="660.0" cy="690.0" r="3.0" fill="#00203F" stroke="none" stroke-width="1"/>
  <text x="394.0" y="743.0" style="white-space:pre"><tspan font-family="'SFMono-Regular',Menlo,Consolas,'Liberation Mono',monospace" font-size="14" fill="#8a9ab0" font-weight="400">sleep(50ms)</tspan></text>
  <circle cx="380.0" cy="738.0" r="3.0" fill="#00203F" stroke="none" stroke-width="1"/>
  <line x1="380.0" y1="812.0" x2="119.0" y2="812.0" stroke="#00203F" stroke-width="2" stroke-linecap="round" stroke-dasharray="7 5"/>
  <path d="M 119 807 L 119 817 L 110 812 Z" fill="#00203F"/>
  <text x="245.0" y="803.0" text-anchor="middle" style="white-space:pre"><tspan font-family="'SFMono-Regular',Menlo,Consolas,'Liberation Mono',monospace" font-size="14" fill="#00203F" font-weight="400">self</tspan></text>
  <circle cx="380.0" cy="812.0" r="3.0" fill="#00203F" stroke="none" stroke-width="1"/>
  <text x="394.0" y="817.0" style="white-space:pre"><tspan font-family="system-ui,'Segoe UI',Inter,Helvetica,Arial,sans-serif" font-size="13" fill="#8a9ab0" font-weight="400">(or raises RbAmpIOError on failure)</tspan></text>
</svg>